# xmcd CD database file
#
# Track frame offsets:
#	150
#	21533
#	42084
#	65035
#	86230
#	106675
#	131334
#	156175
#	176542
#	197573
#	217673
#	239874
#	258758
#	285109
#	307906
#	328367
#
# Disc length: 4657 seconds
#
# Revision: 1
# Processed by: cddbd v1.5PL3 Copyright (c) Steve Scherf et al.
# Submitted via: CDex 1.50
#
DISCID=dc122f10
DTITLE=Varios Interpretes de Salsa - Maria Cecilia Recopilacion 3
DYEAR=2004
DGENRE=Salsa
TTITLE0=Deddie Romero - Amame toda la noche
TTITLE1=Jerry Rivera - Casi un hechizo
TTITLE2=Victor Manuelle - Hay Que Poner el Alma
TTITLE3=Tibiri Tabara - Corazon partio
TTITLE4=Rey Ruiz - Desde que no estas
TTITLE5=Willy Chirino - Medias negras
TTITLE6=Gilberto Santa Rosa - Conciencia
TTITLE7=Miles Peña - Solito Solo
TTITLE8=Ray De La Paz - Si vivir contigo
TTITLE9=Frankie Ruiz - Hablame
TTITLE10=Gilberto Santa Rosa - Para decir te amo
TTITLE11=Miles Peña - Dos corazones
TTITLE12=Ray de la Paz - Que lastima
TTITLE13=Tony Vega - Aparentemente
TTITLE14=Ray de la Paz - Si ella supiera
TTITLE15=Rey Ruiz - Amiga
EXTD=YEAR: 2004
EXTT0=
EXTT1=
EXTT2=
EXTT3=
EXTT4=
EXTT5=
EXTT6=
EXTT7=
EXTT8=
EXTT9=
EXTT10=
EXTT11=
EXTT12=
EXTT13=
EXTT14=
EXTT15=
PLAYORDER=
